Coordinates
version=1
nRows=16
nColumns=28
inDegrees=yes

Units are S.I. units (second, meters, Newtons, ...)
Angles are in degrees.

endheader
time	pelvis_tilt	pelvis_list	pelvis_rotation	pelvis_tx	pelvis_ty	pelvis_tz	hip_flexion_r	hip_adduction_r	hip_rotation_r	knee_angle_r	ankle_angle_r	subtalar_angle_r	mtp_angle_r	hip_flexion_l	hip_adduction_l	hip_rotation_l	knee_angle_l	socket_flexion	socket_adduction	socket_rotation	socket_tx	socket_ty	socket_tz	foot_flex	lumbar_extension	lumbar_bending	lumbar_rotation
      0.32083333	      2.33667314	     -1.04490361	     -4.89476362	     -0.44345594	      1.01525658	      0.28455617	     12.83041081	      1.59397924	      2.50831322	    -64.88214038	     -3.89048598	    -19.93087430	     24.72052540	     -2.05022898	      1.48132576	      9.39152215	     -2.29080452	      0.00000000	      0.00000000	      0.00000000	      0.00000000	     -0.00839771	      0.00000000	      1.30326189	    -11.54525446	     -2.74888987	      5.45928957
      0.32500000	      2.37144914	     -1.05719709	     -4.80126869	     -0.43865147	      1.01567036	      0.28433009	     13.37255360	      1.65540621	      2.51331168	    -64.60790468	     -3.81648120	    -19.92826153	     24.73510701	     -2.41468212	      1.50063139	      9.42164683	     -2.22719283	      0.00000000	      0.00000000	      0.00000000	      0.00000000	     -0.00817035	      0.00000000	      1.37802580	    -11.63687811	     -2.74634636	      5.44337880
      0.32916667	      2.47034352	     -1.37782152	     -4.59284096	     -0.43338397	      1.01619699	      0.28392268	     13.65608085	      2.04802553	      2.42817874	    -64.11613038	     -3.08972917	    -19.32652190	     25.06164448	     -2.97534866	      1.16763490	      9.65435084	     -2.01333450	      0.00000000	      0.00000000	      0.00000000	      0.00000000	     -0.00827370	      0.00000000	      1.51867845	    -11.73760914	     -2.29728717	      5.06652808
      0.33333333	      2.49956412	     -1.38889066	     -4.47492657	     -0.42868302	      1.01650960	      0.28376020	     14.20076507	      2.11883845	      2.42345662	    -63.81164915	     -3.01134518	    -19.32388181	     25.07523541	     -3.31993425	      1.17746475	      9.65971850	     -1.95991421	      0.00000000	      0.00000000	      0.00000000	      0.00000000	     -0.00809506	      0.00000000	      1.58735431	    -11.84801676	     -2.32118139	      5.04764311
      0.33750000	      2.51411434	     -1.71655563	     -4.26463057	     -0.42355278	      1.01679783	      0.28347935	     14.58491564	      2.55180552	      2.35109535	    -63.29770712	     -2.27445158	    -19.06058777	     25.28938533	     -3.76271537	      0.81801663	      9.83539563	     -1.77603329	      0.00000000	      0.00000000	      0.00000000	      0.00000000	     -0.00832578	      0.00000000	      1.72426128	    -11.86316298	     -1.89575499	      4.75896005
      0.34166667	      2.54047341	     -1.71754364	     -4.14045377	     -0.41898935	      1.01703597	      0.28333804	     15.12813864	      2.61222770	      2.34259017	    -62.93707362	     -2.21430332	    -19.04454120	     25.29814427	     -4.08829889	      0.83716441	      9.83448217	     -1.73467616	      0.00000000	      0.00000000	      0.00000000	      0.00000000	     -0.00817292	      0.00000000	      1.78696182	    -11.98592893	     -1.91500322	      4.73683046
      0.34583333	      2.53818731	     -2.10690924	     -3.75149146	     -0.41386337	      1.01732562	      0.28276755	     15.45473264	      3.03739457	      2.08333893	    -62.24233781	     -1.57365725	    -18.41711017	     25.51513664	     -4.47549836	      0.39927070	     10.15064948	     -1.59205545	      0.00000000	      0.00000000	      0.00000000	      0.00000000	     -0.00843572	      0.00000000	      1.94099518	    -11.99241755	     -1.39580643	      4.18584625
      0.35000000	      2.56520974	     -2.10233471	     -3.63098696	     -0.40946822	      1.01746975	      0.28262400	     16.00863648	      3.08361186	      2.07326257	    -61.85879791	     -1.50593243	    -18.41129805	     25.52120042	     -4.78749688	      0.42325598	     10.14154567	     -1.55636093	      0.00000000	      0.00000000	      0.00000000	      0.00000000	     -0.00834029	      0.00000000	      1.99937730	    -12.12080277	     -1.40829468	      4.16713229
      0.35416667	      2.51375720	     -2.24978564	     -3.40587557	     -0.40450357	      1.01766613	      0.28248451	     16.44363440	      3.31260493	      2.02250928	    -61.18178145	     -1.11697945	    -18.32487505	     25.58956069	     -5.11029730	      0.24025287	     10.24920977	     -1.40033259	      0.00000000	      0.00000000	      0.00000000	      0.00000000	     -0.00820114	      0.00000000	      2.18753362	    -12.05221152	     -1.23527822	      4.00754173
      0.35833333	      2.52500548	     -2.27416992	     -3.27403992	     -0.40026751	      1.01768467	      0.28237632	     17.00913355	      3.37924590	      1.98750021	    -60.74803675	     -1.02069520	    -18.30743688	     25.59973374	     -5.39015909	      0.22148232	     10.23502530	     -1.37571168	      0.00000000	      0.00000000	      0.00000000	      0.00000000	     -0.00824391	      0.00000000	      2.23401842	    -12.20527433	     -1.22999072	      3.96790012
      0.36250000	      2.30504231	     -2.76192913	     -2.61176361	     -0.39532555	      1.01754992	      0.28133163	     17.51389181	      3.79036252	      1.39658832	    -59.88350991	     -0.29760000	    -17.53411846	     25.64178213	     -5.41918583	     -0.35420277	     10.79372991	     -1.39116096	      0.00000000	      0.00000000	      0.00000000	      0.00000000	     -0.00884528	      0.00000000	      2.38534320	    -11.98316234	     -0.47384568	      2.92602555
      0.36666667	      2.31287403	     -2.74856278	     -2.50235691	     -0.39118371	      1.01752183	      0.28128156	     18.08050777	      3.81508346	      1.37751937	    -59.41366092	     -0.22762106	    -17.53851608	     25.64054161	     -5.69678638	     -0.33554854	     10.76487187	     -1.34318709	      0.00000000	      0.00000000	      0.00000000	      0.00000000	     -0.00882450	      0.00000000	      2.43814298	    -12.13992958	     -0.49868183	      2.91560800
      0.37083333	      2.11464627	     -3.07063325	     -2.15836534	     -0.38624127	      1.01739299	      0.28086030	     18.58825959	      4.16964676	      1.16408278	    -58.53464523	      0.25384212	    -17.42018302	     25.60770366	     -5.82204285	     -0.72520375	     10.97535892	     -1.25144237	      0.00000000	      0.00000000	      0.00000000	      0.00000000	     -0.00909243	      0.00000000	      2.58859776	    -11.90798934	     -0.08302887	      2.61953966
      0.37500000	      2.08411031	     -3.07186472	     -1.98995838	     -0.38186867	      1.01741850	      0.28072639	     19.07367699	      4.19396804	      1.13415063	    -57.84867325	      0.37371431	    -17.41423885	     25.59027084	     -6.06318091	     -0.72638540	     10.95833417	     -1.21823208	      0.00000000	      0.00000000	      0.00000000	      0.00000000	     -0.00896787	      0.00000000	      2.68439092	    -11.95267689	     -0.10558765	      2.55980630
      0.37916667	      1.87010913	     -3.36290467	     -1.61498057	     -0.37730264	      1.01711623	      0.28022309	     19.66836280	      4.45817919	      0.81961515	    -57.03533909	      0.73760435	    -17.32882799	     25.45921524	     -6.09761834	     -1.08150015	     11.23457421	     -1.19994607	      0.00000000	      0.00000000	      0.00000000	      0.00000000	     -0.00937462	      0.00000000	      2.80126359	    -11.78632761	      0.32275729	      2.13229706
      0.38333333	      1.83091847	     -3.33522791	     -1.47250342	     -0.37291570	      1.01709458	      0.28014681	     20.14079655	      4.44394580	      0.79066401	    -56.29802371	      0.83712544	    -17.33257020	     25.42792488	     -6.33897030	     -1.05795633	     11.21377348	     -1.15514017	      0.00000000	      0.00000000	      0.00000000	      0.00000000	     -0.00920113	      0.00000000	      2.89837445	    -11.82594156	      0.26409626	      2.07724532
